<?xml version="1.0" encoding="UTF-8"?>
<svg id="SVGDoc" width="58" height="36" xmlns="http://www.w3.org/2000/svg" version="1.1" xmlns:xlink="http://www.w3.org/1999/xlink" xmlns:avocode="https://avocode.com/" viewBox="0 0 58 36"><defs></defs><desc>Generated with Avocode.</desc><g><g><title>Shipped copy 2</title><path d="M57.99988,19.90101v9.50495c0,0.49217 -0.40669,0.89106 -0.90816,0.89106h-2.96833c0.00024,0.01999 0.00163,0.03936 0.00163,0.05947c0,3.11193 -2.58028,5.64348 -5.75159,5.64348c-3.17131,0 -5.7515,-2.53154 -5.7515,-5.64348c0,-0.01999 0.00138,-0.03948 0.00163,-0.05947h-20.46653c0.00024,0.01999 0.00155,0.03936 0.00155,0.05947c0,3.11193 -2.5802,5.64348 -5.7515,5.64348c-3.17131,0 -5.7515,-2.53154 -5.7515,-5.64348c0,-0.01999 0.00138,-0.03948 0.00163,-0.05947h-4.90555c-1.03493,0 -1.87689,-0.82604 -1.87689,-1.84159v-1.96041h-2.96654c-0.50163,0 -0.90824,-0.39889 -0.90824,-0.89106c0,-0.49229 0.40669,-0.89106 0.90824,-0.89106h8.71812c0.50155,0 0.90816,0.39877 0.90816,0.89106c0,0.49217 -0.40669,0.89106 -0.90816,0.89106h-3.93535v1.96041c0,0.03282 0.02711,0.05947 0.0605,0.05947h5.22016c0.77992,-2.21026 2.92118,-3.802 5.43543,-3.802c2.51433,0 4.65543,1.59175 5.43551,3.802h18.8418v-6.7127c0,-0.49229 0.40669,-0.89131 0.90816,-0.89131c0.50163,0 0.90824,0.39914 0.90824,0.89131v6.71295h0.43723c0.77992,-2.21013 2.92118,-3.80213 5.43543,-3.80213c2.51433,0 4.65543,1.59199 5.43551,3.80213h2.37461v-3.92094h-1.02931c-1.56904,0 -2.84546,-1.25232 -2.84546,-2.792v-1.90094c0,-0.49217 0.40661,-0.89106 0.90816,-0.89106h2.82389c-0.38455,-1.17003 -1.50383,-2.01902 -2.8221,-2.01988c-0.00081,0 -0.00155,0.00012 -0.00252,0.00012c-0.00073,0 -0.00147,-0.00025 -0.00236,-0.00025h-10.71291v1.01025c0,0.49217 -0.40661,0.89106 -0.90816,0.89106c-0.50163,0 -0.90816,-0.39902 -0.90816,-0.89106v-16.15892c0,-0.0327 -0.02711,-0.0591 -0.0605,-0.0591h-34.87265c-0.03338,0 -0.0605,0.0264 -0.0605,0.0591v16.15867c0,0.49217 -0.40661,0.89119 -0.90816,0.89119c-0.50155,0 -0.90816,-0.39914 -0.90816,-0.89119v-16.15867c0,-1.01543 0.84188,-1.84159 1.87681,-1.84159h34.87273c1.03501,0 1.87689,0.82616 1.87689,1.84159v1.96078h6.84123c2.10308,0 3.8142,1.67873 3.8142,3.74253v0.95053c0,0.42813 -0.30809,0.78569 -0.71878,0.8712l1.50204,5.89505c2.29564,0.343 4.06025,2.29268 4.06009,4.6394zM42.5011,7.60418h8.83919v-0.05935c0,-1.08107 -0.89627,-1.96041 -1.99796,-1.96041h-6.84123zM42.5011,15.20819h9.55284l-1.48323,-5.82188h-8.06961zM20.34234,30.35674c0,-2.12944 -1.76535,-3.86147 -3.93527,-3.86147c-2.16984,0 -3.93527,1.73203 -3.93527,3.86147c0,2.1292 1.76543,3.86123 3.93527,3.86123c2.16992,0 3.93527,-1.73203 3.93527,-3.86123zM52.30895,30.35674c0,-2.12944 -1.76535,-3.86147 -3.93527,-3.86147c-2.16992,0 -3.93527,1.73203 -3.93527,3.86147c0,2.1292 1.76535,3.86123 3.93527,3.86123c2.16992,0 3.93527,-1.73203 3.93527,-3.86123zM56.18364,22.81207v-2.01988h-2.05846v1.01c0,0.55682 0.46173,1.00988 1.02931,1.00988zM18.28396,30.35674c0,1.01543 -0.84196,1.84159 -1.87689,1.84159c-1.03493,0 -1.87681,-0.82616 -1.87681,-1.84159c0,-1.01555 0.84188,-1.84159 1.87681,-1.84159c1.03493,0 1.87689,0.82604 1.87689,1.84159zM50.25057,30.35674c0,1.01543 -0.84196,1.84159 -1.87689,1.84159c-1.03493,0 -1.87681,-0.82616 -1.87681,-1.84159c0,-1.01555 0.84188,-1.84159 1.87681,-1.84159c1.03493,0 1.87689,0.82604 1.87689,1.84159zM38.62633,25.6042c0,0.49217 -0.40669,0.89119 -0.90824,0.89119h-13.56155c-0.50163,0 -0.90816,-0.39902 -0.90816,-0.89119c0,-0.49205 0.40669,-0.89106 0.90816,-0.89106h13.56155c0.50163,0 0.90824,0.39902 0.90824,0.89106zM15.37792,21.8022c0,0.49217 -0.40669,0.89119 -0.90816,0.89119h-11.62424c-0.50163,0 -0.90816,-0.39902 -0.90816,-0.89119c0,-0.49217 0.40669,-0.89106 0.90816,-0.89106h11.62424c0.50147,0 0.90816,0.39889 0.90816,0.89106zM31.57943,10.07576l-8.71812,8.55442c-0.17717,0.17421 -0.40979,0.26108 -0.64208,0.26108c-0.23237,0 -0.46483,-0.08686 -0.64208,-0.26108l-4.84351,-4.75254c-0.35467,-0.34806 -0.35467,-0.91216 0,-1.2601c0.35458,-0.34818 0.92965,-0.34818 1.28432,0l4.20127,4.12243l8.07604,-7.92431c0.35458,-0.34818 0.92965,-0.34818 1.28424,-0.00025c0.35458,0.34806 0.35458,0.91216 -0.00008,1.26034z" fill="#000000" fill-opacity="1"></path></g></g></svg>