<?xml version="1.0" encoding="UTF-8"?>
<svg id="SVGDoc" width="58" height="38" xmlns="http://www.w3.org/2000/svg" version="1.1" xmlns:xlink="http://www.w3.org/1999/xlink" xmlns:avocode="https://avocode.com/" viewBox="0 0 58 38"><defs></defs><desc>Generated with Avocode.</desc><g><g><title>Credit card</title><path d="M57.99978,5.93742l0,2.35117c0.00016,0.00792 0.00024,0.01585 0.00024,0.0238v7.12504c0,0.00805 -0.00008,0.01609 -0.00024,0.0241v16.60108c0,3.2727 -2.71153,5.93749 -6.0416,5.93749h-45.91653c-3.33016,0 -6.04169,-2.6648 -6.04169,-5.93749l0,-16.62518c0,0 0,0 0,0v-9.50001c0,-3.2727 2.71153,-5.93762 6.04169,-5.93762h45.91662c3.33016,0 6.0416,2.66492 6.04152,5.93762zM55.58316,32.06249v-15.43751l-53.16657,0v15.43751c0,1.96411 1.62644,3.56252 3.62506,3.56252h45.91662c1.99862,0 3.62498,-1.59841 3.62498,-3.56252zM55.58316,5.93742c0,-1.96411 -1.62636,-3.56252 -3.62498,-3.56252h-45.91653c-1.99862,0 -3.62506,1.59841 -3.62506,3.56252v1.18742h53.16657zM55.58316,14.24988v-4.74995l-53.16657,0v4.74995zM24.1667,24.93745c0,0.65565 -0.54136,1.18755 -1.20835,1.18755h-14.5c-0.66699,0 -1.20835,-0.53177 -1.20835,-1.18742c0,-0.6554 0.54136,-1.18755 1.20835,-1.18755h14.5c0.66699,0 1.20835,0.53202 1.20835,1.18742zM24.1667,29.68751c0,0.6554 -0.54136,1.18755 -1.20835,1.18755h-14.5c-0.66699,0 -1.20835,-0.53214 -1.20835,-1.18755c0,-0.65565 0.54136,-1.18755 1.20835,-1.18755h14.5c0.66699,0 1.20827,0.5319 1.20835,1.18755zM50.74991,24.93745v2.37497c0,1.96424 -1.62636,3.56252 -3.62498,3.56252h-2.41663c-1.99862,0 -3.62498,-1.59829 -3.62498,-3.56252v-2.37497c0,-1.96424 1.62636,-3.56252 3.62498,-3.56252h2.41663c1.99862,0 3.62498,1.59841 3.62498,3.56252zM48.33328,24.93757c0,-0.6554 -0.54136,-1.18755 -1.20835,-1.18755h-2.41663c-0.66699,0 -1.20835,0.53214 -1.20835,1.18755v2.3751c0,0.6554 0.54136,1.18742 1.20835,1.18742h2.41663c0.66699,0 1.20835,-0.53202 1.20835,-1.18742z" fill="#000000" fill-opacity="1"></path></g></g></svg>