<?xml version="1.0" encoding="UTF-8"?>
<svg id="SVGDoc" width="54" height="50" xmlns="http://www.w3.org/2000/svg" version="1.1" xmlns:xlink="http://www.w3.org/1999/xlink" xmlns:avocode="https://avocode.com/" viewBox="0 0 54 50"><defs></defs><desc>Generated with Avocode.</desc><g><g><title>Shopping cart</title><path d="M27.3932,45.24825c0,2.62026 -2.1306,4.75192 -4.74931,4.75192c-2.61879,0 -4.74931,-2.13166 -4.74931,-4.75192c0,-2.62013 2.13052,-4.7518 4.74931,-4.7518c2.61863,0 4.74914,2.13166 4.74931,4.7518zM24.74135,45.24812c0,-1.15707 -0.94097,-2.09884 -2.09746,-2.09884c-1.15649,0 -2.09754,0.94165 -2.09754,2.09884c0,1.15707 0.94089,2.0986 2.09754,2.0986c1.15649,0 2.09746,-0.94128 2.09746,-2.0986zM44.05197,45.24825c0,2.62026 -2.13052,4.75192 -4.74931,4.75192c-2.61879,0 -4.74931,-2.13166 -4.74931,-4.75192c0,-2.62013 2.13052,-4.7518 4.74931,-4.7518c2.61871,0 4.74923,2.13166 4.74931,4.7518zM41.4002,45.24812c0,-1.15707 -0.94089,-2.09884 -2.09754,-2.09884c-1.15649,0 -2.09754,0.94165 -2.09754,2.09884c0,1.15707 0.94097,2.0986 2.09754,2.0986c1.15649,0 2.09754,-0.94128 2.09754,-2.0986zM41.79786,16.80496c0,0.73264 -0.59363,1.3266 -1.32592,1.3266h-19.00073c-0.73213,0 -1.32584,-0.59396 -1.32584,-1.3266c0,-0.73276 0.59355,-1.3266 1.32584,-1.3266h19.00073c0.73229,0 1.32592,0.59371 1.32592,1.3266zM40.76358,23.69397c0,0.73252 -0.59363,1.3266 -1.32592,1.3266h-16.93217c-0.73229,0 -1.32584,-0.59408 -1.32584,-1.3266c0,-0.73276 0.59355,-1.32672 1.32584,-1.32672h16.93234c0.73213,0 1.32576,0.59408 1.32576,1.32672zM53.94718,11.77889l-3.70876,18.01112c-0.25256,1.22715 -1.34498,2.11785 -2.59713,2.11785h-32.79042l0.78041,3.79004h31.76444c0.73237,0 1.32592,0.59384 1.32592,1.3266c0,0.73264 -0.59355,1.3266 -1.32592,1.3266h-31.76461c-1.25224,0 -2.34449,-0.89057 -2.59721,-2.11772l-6.41548,-31.15867l-5.81973,-2.52747c-0.67155,-0.29167 -0.97981,-1.07293 -0.68808,-1.74511c0.2914,-0.67206 1.07222,-0.98039 1.7441,-0.68847l5.81965,2.52735c0.79108,0.34374 1.3672,1.05331 1.54136,1.89847l0.83407,4.05124h41.3001c0.80068,0 1.54991,0.35596 2.05561,0.97694c0.5057,0.62073 0.70314,1.42703 0.54169,2.21125zM51.3498,11.24391l-40.75369,-0.00025l3.70852,18.011h33.33666z" fill="#000000" fill-opacity="1"></path></g></g></svg>