<?xml version="1.0" encoding="UTF-8"?>
<svg id="SVGDoc" width="54" height="40" xmlns="http://www.w3.org/2000/svg" version="1.1" xmlns:xlink="http://www.w3.org/1999/xlink" xmlns:avocode="https://avocode.com/" viewBox="0 0 54 40"><defs></defs><desc>Generated with Avocode.</desc><g><g><title>Mailbox</title><path d="M53.99997,23.33322v13.33336c0,1.83789 -1.51417,3.33328 -3.37494,3.33328l-33.72077,0c-0.00975,0.00008 -0.0195,0.00012 -0.02927,0.00012c-0.00565,0 -0.01129,-0.00004 -0.01692,-0.00012h-13.48307c-1.86077,0 -3.37502,-1.49539 -3.37502,-3.33328v-13.33336c0,-5.51331 4.54274,-9.99996 10.12498,-9.99996l16.87502,0v-12.22206c0,-0.61333 0.50407,-1.11117 1.12506,-1.11117h11.24996c0.62099,0 1.12498,0.49784 1.12514,1.11105v6.66656c0,0.61333 -0.50407,1.11105 -1.12506,1.11105h-10.12498v4.44458h14.62489c5.58223,0 10.12498,4.48665 10.12498,9.99996zM51.75001,23.33322c0,-4.28887 -3.53257,-7.77773 -7.87502,-7.77773h-14.62489v7.77773c0,0.61345 -0.50407,1.11117 -1.12506,1.11117c-0.62099,0 -1.12506,-0.49772 -1.12506,-1.11117v-7.77773l-10.51826,0c2.29695,1.83487 3.7683,4.64004 3.7683,7.77773v13.33348c0,0.38937 -0.06797,0.76338 -0.19282,1.11105h30.56783c0.62099,0 1.12498,-0.49994 1.12498,-1.11117zM2.24994,23.33322v13.33336c0,0.61123 0.50407,1.11117 1.12506,1.11117h13.5c0.62099,0 1.12506,-0.49994 1.12506,-1.11117v-13.33336c0,-4.28887 -3.53257,-7.77773 -7.8751,-7.77773h0c-4.34253,0 -7.87502,3.48899 -7.87502,7.77773zM38.25001,2.22226h-8.99992v4.44445h8.99992z" fill="#000000" fill-opacity="1"></path></g></g></svg>